<?xml version="1.0" encoding="UTF-8"?><svg id="Warstwa_1" xmlns="http://www.w3.org/2000/svg" viewBox="0 0 168.75353 181.87595"><defs><style>.cls-1{fill:#ffda1f;stroke-width:0px;}</style></defs><g id="CAR_PARK_Parking_-logomark"><path class="cls-1" d="m36.82739,56.3126l-10.9523-10.95093-16.63005,16.62868c-12.33814,12.34157-12.32511,32.43176.02949,44.7843l16.60057,16.59988,10.9523-10.94956-16.60194-16.60125c-6.31478-6.31547-6.31478-16.5944,0-22.91124l16.60194-16.59988Z"/><path class="cls-1" d="m95.80127,148.54864c-6.29627,6.2949-16.54571,6.2949-22.85021,0l-16.62937-16.63142-10.9523,10.94956,39.00574,39.00917,39.00849-39.00917-10.9523-10.94956-16.63005,16.63142Z"/><path class="cls-1" d="m159.50592,61.99035l-16.63005-16.62868-10.95024,10.95093,16.62937,16.63142c3.05145,3.05008,4.73215,7.10679,4.73215,11.4227,0,4.32003-1.6807,8.37674-4.73215,11.42545l-16.62937,16.6328,10.95024,10.94956,16.60262-16.59988c5.97604-5.97398,9.26955-13.92969,9.27503-22.39832.0048-8.46863-3.27911-16.41885-9.2476-22.38598Z"/><path class="cls-1" d="m61.97133,9.26543l-16.60194,16.60125,10.9523,10.95367,16.59988-16.604c6.31684-6.31273,16.59508-6.31273,22.90918,0l16.60057,16.604,10.9523-10.95367-16.60194-16.60125c-12.35871-12.35391-32.46124-12.35391-44.81035,0Z"/><polygon class="cls-1" points="44.4344 84.35439 71.86247 111.78314 82.6166 101.02833 65.94129 84.35439 82.6166 67.67771 71.86247 56.92701 44.4344 84.35439"/><rect class="cls-1" x="101.79459" y="58.34882" width="15.20694" height="26.99816" transform="translate(-18.76642 98.37944) rotate(-44.99087)"/><rect class="cls-1" x="89.2887" y="73.29701" width="15.20645" height="38.78939" transform="translate(-37.16402 95.65835) rotate(-44.99857)"/></g></svg>